# xmcd CD database file
#
# Track frame offsets:
#	150
#	11970
#	25125
#	37727
#	51277
#	64425
#	76920
#	87804
#	102115
#	115157
#	128817
#	141122
#	153605
#	166302
#	179134
#	189907
#	205012
#	217757
#
# Disc length: 3061 seconds
#
# Revision: 0
# Processed by: cddbd v1.5.1PL0 Copyright (c) Steve Scherf et al.
# Submitted via: CDex 1.50beta10
#
DISCID=ef0bf312
DTITLE=J. B. Lenoir - I Feel So Good - (The 1951-1954 J.O.B. Sessions)
DYEAR=2003
DGENRE=Blues
TTITLE0=Let's Roll (Take 2)
TTITLE1=People Are Meddling (In Our Affairs)
TTITLE2=(I Wanna) Play ALittle While
TTITLE3=Louise
TTITLE4=How Much More
TTITLE5=The Mountain
TTITLE6=I Have Married
TTITLE7=I'll Die Tryin'
TTITLE8=The Mojo (Take 4)
TTITLE9=How Can I Leave
TTITLE10=I Want My Baby (Take 4)
TTITLE11=Slow Down Woman (Take 2)
TTITLE12=Let's Roll (Take 1)
TTITLE13=The Mojo (Take 1)
TTITLE14=I want My Baby (Take 1)
TTITLE15=Slow Down Woman (Take 1)
TTITLE16=I Sing Um The Way I Feel (Take 18)
TTITLE17=I Feel So Good (Take 21)
EXTD=YEAR: 2003
EXTT0=
EXTT1=
EXTT2=
EXTT3=
EXTT4=
EXTT5=
EXTT6=
EXTT7=
EXTT8=
EXTT9=
EXTT10=
EXTT11=
EXTT12=
EXTT13=
EXTT14=
EXTT15=
EXTT16=
EXTT17=
PLAYORDER=
